<svg width="24" height="24" viewBox="0 0 24 24" fill="none" xmlns="http://www.w3.org/2000/svg">
<path d="M19 10.17C19.0005 10.3194 18.9676 10.467 18.9035 10.6019C18.8395 10.7369 18.7461 10.8558 18.63 10.95L12.63 15.78C12.4511 15.927 12.2267 16.0074 11.995 16.0074C11.7634 16.0074 11.539 15.927 11.36 15.78L5.36003 10.78C5.15581 10.6102 5.02739 10.3663 5.00301 10.1019C4.97863 9.83746 5.06029 9.57418 5.23003 9.36996C5.39977 9.16574 5.64368 9.03732 5.90811 9.01294C6.17253 8.98856 6.43581 9.07022 6.64003 9.23996L12 13.71L17.36 9.38996C17.5068 9.26768 17.6856 9.19 17.8751 9.16612C18.0647 9.14224 18.2571 9.17316 18.4296 9.25521C18.6021 9.33727 18.7475 9.46703 18.8486 9.62914C18.9497 9.79125 19.0023 9.97892 19 10.17Z" fill="#030A23"/>
</svg>
